<?xml version="1.0" encoding="iso-8859-1"?>
<!-- Uploaded to: SVG Repo, www.svgrepo.com, Generator: SVG Repo Mixer Tools -->
<svg fill="#000000" height="800px" width="800px" version="1.1" id="Layer_1" xmlns="http://www.w3.org/2000/svg" xmlns:xlink="http://www.w3.org/1999/xlink" 
	 viewBox="0 0 511.995 511.995" xml:space="preserve">
<g>
	<g>
		<g>
			<path d="M170.726,169.273c1.344,56.405,23.957,109.227,64,149.269l21.269,21.269l21.269-21.269
				c40.043-40.043,62.656-92.864,64-149.269c-28.907-8.597-57.493-18.837-85.269-30.571
				C228.219,150.435,199.633,160.675,170.726,169.273z"/>
			<path d="M452.179,64.421l-13.099-2.624C378.835,49.744,320.445,29.712,265.533,2.256c-5.995-3.008-13.077-3.008-19.072,0
				C191.549,29.712,133.16,49.744,72.915,61.797l-13.099,2.624c-9.984,1.984-17.152,10.752-17.152,20.907v78.571
				c0,92.608,36.053,179.669,101.547,245.163l96.704,96.683c4.16,4.181,9.621,6.251,15.083,6.251c5.461,0,10.923-2.069,15.083-6.251
				l96.704-96.683c65.493-65.493,101.547-152.555,101.547-245.163V85.328C469.331,75.173,462.163,66.405,452.179,64.421z
				 M383.997,163.899c0,69.824-27.179,135.467-76.565,184.811l-36.352,36.373c-3.989,3.989-9.429,6.251-15.083,6.251
				c-5.653,0-11.093-2.261-15.083-6.251l-36.352-36.373c-49.387-49.344-76.565-114.987-76.565-184.811v-10.688
				c0-9.6,6.4-18.027,15.659-20.565c35.328-9.728,70.251-22.08,103.829-36.715c5.419-2.347,11.605-2.347,17.024,0
				c33.579,14.635,68.501,26.987,103.829,36.715c9.259,2.539,15.659,10.965,15.659,20.565V163.899z"/>
		</g>
	</g>
</g>
</svg>