<?xml version="1.0" encoding="iso-8859-1"?>
<!-- Uploaded to: SVG Repo, www.svgrepo.com, Generator: SVG Repo Mixer Tools -->
<svg fill="#000000" height="800px" width="800px" version="1.1" id="Layer_1" xmlns="http://www.w3.org/2000/svg" xmlns:xlink="http://www.w3.org/1999/xlink" 
	 viewBox="0 0 491.518 491.518" xml:space="preserve">
<g>
	<g>
		<g>
			<path d="M174.952,146.96c5.714,11.735,10.609,23.654,14.561,35.43c2.888,8.561,10.854,13.967,19.415,13.967
				c2.171,0,4.362-0.348,6.533-1.085c10.711-3.584,16.486-15.196,12.882-25.928c-4.506-13.435-10.076-26.993-16.548-40.305
				c-4.936-10.138-17.162-14.397-27.382-9.462C174.235,124.535,170.017,136.782,174.952,146.96z"/>
			<path d="M310.972,369.56c-10.199-4.936-22.446-0.655-27.341,9.544c-5.1,10.568-11.674,20.357-19.538,29.102
				c-24.433,27.156-59.126,42.721-96.01,42.353c-36.557-0.225-71.352-16.138-95.478-43.602
				c-25.702-29.286-35.983-68.444-29.901-105.574c11.715,24.392,23.04,40.571,23.798,41.656c5.632,7.926,15.892,9.953,24.822,6.001
				c8.909-3.953,13.619-14.541,11.489-24.064c-13.476-60.703,3.645-125.645,45.834-173.691l35.656-40.632
				c7.455-8.499,6.615-21.443-1.884-28.897c-8.499-7.455-21.443-6.595-28.897,1.884l-35.656,40.612
				c-28.467,32.44-47.452,71.332-55.747,112.148c-2.601-6.82-8.704-11.817-16.036-12.943c-8.09-1.249-16.118,2.437-20.46,9.38
				c-39.301,62.792-32.645,145.49,16.2,201.134c31.846,36.27,77.763,57.242,126.013,57.549h1.065
				c47.862,0,93.614-20.337,125.645-55.91c10.445-11.633,19.19-24.658,25.969-38.707
				C325.431,386.722,321.151,374.475,310.972,369.56z"/>
			<path d="M313.463,287.74c-10.936,1.27-18.903,11.121-18.043,22.118l20.419-1.556l20.214-3.502
				C334.373,293.904,324.542,286.45,313.463,287.74z"/>
			<path d="M244.803,364.599c2.314,0.84,4.69,1.249,7.004,1.249c8.356,0,16.22-5.181,19.251-13.496l13.988-38.502
				c3.85-10.629-1.618-22.364-12.247-26.235c-10.609-3.83-22.385,1.618-26.255,12.247l-13.988,38.482
				C228.686,348.973,234.174,360.729,244.803,364.599z"/>
			<path d="M208.124,266.119l-28.283,29.635c-7.803,8.172-7.496,21.135,0.676,28.959c3.973,3.768,9.073,5.652,14.152,5.652
				c5.386,0,10.793-2.109,14.807-6.328l28.283-29.635c7.803-8.192,7.496-21.156-0.676-28.959
				C228.911,257.64,215.968,257.948,208.124,266.119z"/>
			<path d="M212.363,228.499c-4.116-10.568-15.974-15.77-26.501-11.674l-25.313,9.851c-10.547,4.096-15.77,15.954-11.674,26.501
				c3.154,8.11,10.895,13.066,19.087,13.066c2.478,0,4.977-0.451,7.414-1.393l25.313-9.851
				C211.237,250.905,216.459,239.047,212.363,228.499z"/>
			<path d="M259.565,223.879c0.635,4.383,2.355,8.663,5.816,11.94c3.318,3.174,7.455,4.69,11.674,5.202
				c2.335,3.523,5.468,6.533,9.749,8.09c2.294,0.84,4.669,1.249,6.984,1.249c8.376,0,16.22-5.161,19.251-13.496l13.906-38.216
				l0.102-0.266c0.307-0.84,0.184-1.679,0.369-2.54c0.041-0.143,0.061-0.307,0.082-0.471c0.287-1.331,0.676-2.581,0.676-3.953
				c0-0.266,0.041-0.512,0.041-0.778c-0.061-1.311-0.532-2.499-0.819-3.748c-0.225-0.983-0.143-1.966-0.512-2.949
				c-0.041-0.123-0.164-0.205-0.205-0.328c-0.082-0.205-0.164-0.41-0.266-0.635c-0.532-1.208-1.475-2.191-2.253-3.277
				c-0.676-0.963-1.188-2.028-2.007-2.847c-0.102-0.082-0.123-0.205-0.225-0.307c-0.021-0.021-0.061-0.021-0.102-0.061
				c-0.737-0.696-1.782-1.085-2.621-1.679c-1.229-0.819-2.355-1.761-3.707-2.314c-0.205-0.082-0.369-0.205-0.573-0.287
				c-0.061-0.02-0.082-0.061-0.123-0.082c-0.84-0.287-1.679-0.184-2.519-0.369c-0.143-0.041-0.266-0.041-0.41-0.061
				c-1.352-0.287-2.662-0.696-4.055-0.696c-0.266,0-0.512-0.041-0.778-0.021c-1.147,0.041-2.191,0.492-3.297,0.717
				c-0.061,0.021-0.123,0.021-0.164,0.041c-1.085,0.225-2.15,0.143-3.215,0.553l-38.175,14.848
				c-10.527,4.096-15.749,15.974-11.653,26.522C252.315,218.227,255.613,221.626,259.565,223.879z"/>
			<path d="M470.923,0h-57.938c-6.062,0-11.837,2.703-15.729,7.373l-75.223,90.235c-17.039,20.398-15.708,49.992,3.113,68.792
				c9.994,9.974,22.999,15.032,36.086,15.032c11.551,0,23.183-3.953,32.768-11.981l90.071-75.325
				c4.649-3.891,7.332-9.646,7.332-15.708V20.48C491.403,9.175,482.228,0,470.923,0z"/>
		</g>
	</g>
</g>
</svg>